# xmcd
#
# Track frame offsets:
#	150
#	32045
#	69124
#	102764
#	133814
#
# Disc length: 2314 seconds
#
# Revision: 1
# Processed by: cddbd v1.5.2PL0 Copyright (c) Steve Scherf et al.
# Submitted via: audiograbber 1.82.01
#
DISCID=3a090805
DTITLE=Milk and Sugar pres. MS2 - Promo
DYEAR=2006
DGENRE=House
TTITLE0=Stay Around (Till West and DJ Delicious rmx)
TTITLE1=Stay Around (Original)
TTITLE2=Stay Around (Eddie Thoneick Classic mix)
TTITLE3=Stay Around (Plastik Funk rmx)
TTITLE4=Stay Around (Angel Moraes Mix)
EXTD=
EXTT0=
EXTT1=
EXTT2=
EXTT3=
EXTT4=
PLAYORDER=
